<svg id="Capa_1" enable-background="new 0 0 511.963 511.963" height="512" viewBox="0 0 511.963 511.963" width="512" xmlns="http://www.w3.org/2000/svg" fill="#b1b1b1"><path d="m496.939 170h-69v-70c0-8.284-6.716-15-15-15h-70v-70c0-8.284-6.716-15-15-15h-85.242c-5.595 0-10.725 3.113-13.307 8.076l-136.655 262.635-62.006 62.006c-40.939 40.94-40.938 107.553.001 148.492 19.831 19.832 46.199 30.754 74.245 30.754 28.047 0 54.415-10.922 74.246-30.754l61.683-61.998 262.939-136.337c4.974-2.579 8.096-7.714 8.096-13.316v-84.558c0-8.284-6.716-15-15-15zm-99-55v62.107l-207.044 167.284-23.332-23.332 167.018-206.059zm-208.269 313.019-21.055-21.055 21.213-21.213 21.055 21.055zm-105.908-105.909 21.213-21.213 21.213 21.213-21.213 21.213zm63.639 21.214 21.214 21.213-21.213 21.213-21.213-21.213zm104.4-313.324h61.138v64.056l-166.706 205.674-22.876-22.876zm-93.793 429.997c-14.166 14.166-32.999 21.967-53.033 21.967-20.032 0-38.867-7.801-53.032-21.967-29.242-29.242-29.243-76.823-.001-106.066l10.607-10.607 31.816 31.816c.001.001.002.002.003.004s.002.002.003.003l74.243 74.243zm323.931-199.557-246.95 128.045-22.762-22.762 205.113-165.723h64.599z"/></svg>