<?xml version="1.0" encoding="UTF-8"?>
<svg width="20px" height="20px" viewBox="0 0 20 20" version="1.1" xmlns="http://www.w3.org/2000/svg" xmlns:xlink="http://www.w3.org/1999/xlink">
    <title>icon/sort-alpha-down</title>
    <g id="icon/sort-alpha-down" stroke="none" stroke-width="1" fill="none" fill-rule="evenodd">
        <g id="sort-alpha-down" transform="translate(2.000000, 2.000000)" style="fill: #3FBBC3;" fill-rule="nonzero">
            <path d="M6.28571429,11.4285714 L4.57142857,11.4285714 L4.57142857,0.571428571 C4.57142857,0.255837286 4.31559129,0 4,0 L2.85714286,0 C2.54155157,0 2.28571429,0.255837286 2.28571429,0.571428571 L2.28571429,11.4285714 L0.571428571,11.4285714 C0.0646428571,11.4285714 -0.191428571,12.0442857 0.168214286,12.4039286 L3.02535714,15.8325 C3.24848355,16.0554802 3.61008788,16.0554802 3.83321429,15.8325 L6.69035714,12.4039286 C7.04821429,12.045 6.79357143,11.4285714 6.28571429,11.4285714 Z M14.8571429,9.14285714 L10.2857143,9.14285714 C9.970123,9.14285714 9.71428571,9.39869443 9.71428571,9.71428571 L9.71428571,10.8571429 C9.71428571,11.1727341 9.970123,11.4285714 10.2857143,11.4285714 L12.2857143,11.4285714 L10.0978571,13.9446429 C9.85384817,14.1615462 9.71428571,14.4724512 9.71428571,14.7989286 L9.71428571,15.4285714 C9.71428571,15.7441627 9.970123,16 10.2857143,16 L14.8571429,16 C15.1727341,16 15.4285714,15.7441627 15.4285714,15.4285714 L15.4285714,14.2857143 C15.4285714,13.970123 15.1727341,13.7142857 14.8571429,13.7142857 L12.8571429,13.7142857 L15.045,11.1982143 C15.289009,10.9813109 15.4285714,10.6704059 15.4285714,10.3439286 L15.4285714,9.71428571 C15.4285714,9.39869443 15.1727341,9.14285714 14.8571429,9.14285714 Z M15.9664286,6.09357143 L13.8496429,0.379285714 C13.768427,0.151815418 13.5529627,0 13.3114286,0 L11.8314286,0 C11.5898944,0 11.3744301,0.151815418 11.2932143,0.379285714 L9.17642857,6.09357143 C9.11396501,6.26851999 9.14044186,6.46291381 9.24741886,6.6147842 C9.35439585,6.7666546 9.52852058,6.85704576 9.71428571,6.85714516 L10.6010714,6.85714516 C10.849034,6.85722392 11.0687515,6.6973769 11.145,6.46142857 L11.3028571,6 L13.8385714,6 L13.9960714,6.46142857 C14.0724811,6.69787901 14.2929396,6.857845 14.5414286,6.85714516 L15.4285714,6.85714516 C15.6143366,6.85704576 15.7884613,6.7666546 15.8954383,6.6147842 C16.0024153,6.46291381 16.0288921,6.26851999 15.9664286,6.09357143 L15.9664286,6.09357143 Z M11.9860714,4 L12.5714286,2.28571429 L13.1567857,4 L11.9860714,4 Z" id="Shape"></path>
        </g>
    </g>
</svg>