<?xml version="1.0" encoding="UTF-8"?>
<svg width="20px" height="20px" viewBox="0 0 20 20" version="1.1" xmlns="http://www.w3.org/2000/svg" xmlns:xlink="http://www.w3.org/1999/xlink">
    <title>icon/sort-numeric-up-alt</title>
    <g id="icon/sort-numeric-up-alt" stroke="none" stroke-width="1" fill="none" fill-rule="evenodd">
        <g id="sort-numeric-up-alt" transform="translate(2.000000, 2.000000)" style="fill: #3FBBC3;" fill-rule="nonzero">
            <path d="M3.96526559,0.17330254 C3.73440963,-0.0574021477 3.36027859,-0.0574021477 3.12942263,0.17330254 L0.17330254,3.72064665 C-0.197690531,4.09200924 0.0657736721,4.72979215 0.591224018,4.72979215 L2.36489607,4.72979215 L2.36489607,15.9630485 C2.36489607,16.2895725 2.62959608,16.5542725 2.95612009,16.5542725 L4.13856813,16.5542725 C4.46509214,16.5542725 4.72979215,16.2895725 4.72979215,15.9630485 L4.72979215,4.72979215 L6.5034642,4.72979215 C7.02854503,4.72979215 7.2934873,4.09274827 6.92138568,3.72064665 L3.96526559,0.17330254 Z M14.7806005,14.1893764 L14.1893764,14.1893764 L14.1893764,10.0508083 C14.1893764,9.7242843 13.9246764,9.4595843 13.5981524,9.4595843 L11.8244804,9.4595843 C11.6009384,9.45977343 11.3966181,9.58602597 11.2964434,9.78586605 L10.7052194,10.9683141 C10.6133881,11.1515095 10.6229696,11.3691936 10.7305415,11.5436122 C10.8381134,11.7180308 11.0283331,11.8243071 11.2332564,11.8244804 L11.8244804,11.8244804 L11.8244804,14.1893764 L11.2332564,14.1893764 C10.9067323,14.1893764 10.6420323,14.4540765 10.6420323,14.7806005 L10.6420323,15.9630485 C10.6420323,16.2895725 10.9067323,16.5542725 11.2332564,16.5542725 L14.7806005,16.5542725 C15.1071245,16.5542725 15.3718245,16.2895725 15.3718245,15.9630485 L15.3718245,14.7806005 C15.3718245,14.4540765 15.1071245,14.1893764 14.7806005,14.1893764 L14.7806005,14.1893764 Z M12.2002771,0.107528868 C11.2207636,0.375796838 10.4510748,1.13387032 10.1679446,2.10919169 C9.64064665,3.99556582 10.9509469,5.72193995 12.7113164,5.8978291 C12.4792009,6.09364654 12.2196271,6.2543707 11.9408776,6.37487298 C11.6611547,6.50050808 11.5418014,6.8356582 11.6386143,7.12646651 L12.0044342,7.86549654 C12.110485,8.18438799 12.4674365,8.36397229 12.7767206,8.23168591 C14.9199076,7.31639723 15.9637875,5.95510393 15.9637875,3.35408776 L15.9637875,2.95612009 C15.9630485,1.06383372 14.1753349,-0.419030023 12.2002771,0.107528868 L12.2002771,0.107528868 Z M13.0069284,3.69515012 C12.5987734,3.69515012 12.2678984,3.3642751 12.2678984,2.95612009 C12.2678984,2.54796508 12.5987734,2.21709007 13.0069284,2.21709007 C13.4150834,2.21709007 13.7459584,2.54796508 13.7459584,2.95612009 C13.7459584,3.3642751 13.4150834,3.69515012 13.0069284,3.69515012 L13.0069284,3.69515012 Z" id="Shape"></path>
        </g>
    </g>
</svg>