<?xml version="1.0" encoding="UTF-8"?>
<svg width="20px" height="20px" viewBox="0 0 20 20" version="1.1" xmlns="http://www.w3.org/2000/svg" xmlns:xlink="http://www.w3.org/1999/xlink">
    <title>icon/building</title>
    <g id="icon/building" stroke="none" stroke-width="1" fill="none" fill-rule="evenodd">
        <path d="M17.328125,17.875 L16.625,17.875 L16.625,1.84375 C16.625,1.37775391 16.2472461,1 15.78125,1 L3.96875,1 C3.50275391,1 3.125,1.37775391 3.125,1.84375 L3.125,17.875 L2.421875,17.875 C2.18889453,17.875 2,18.0638945 2,18.296875 L2,19 L17.75,19 L17.75,18.296875 C17.75,18.0638945 17.5611055,17.875 17.328125,17.875 Z M6.5,3.671875 C6.5,3.43889453 6.68889453,3.25 6.921875,3.25 L8.328125,3.25 C8.56110547,3.25 8.75,3.43889453 8.75,3.671875 L8.75,5.078125 C8.75,5.31110547 8.56110547,5.5 8.328125,5.5 L6.921875,5.5 C6.68889453,5.5 6.5,5.31110547 6.5,5.078125 L6.5,3.671875 Z M6.5,7.046875 C6.5,6.81389453 6.68889453,6.625 6.921875,6.625 L8.328125,6.625 C8.56110547,6.625 8.75,6.81389453 8.75,7.046875 L8.75,8.453125 C8.75,8.68610547 8.56110547,8.875 8.328125,8.875 L6.921875,8.875 C6.68889453,8.875 6.5,8.68610547 6.5,8.453125 L6.5,7.046875 Z M8.328125,12.25 L6.921875,12.25 C6.68889453,12.25 6.5,12.0611055 6.5,11.828125 L6.5,10.421875 C6.5,10.1888945 6.68889453,10 6.921875,10 L8.328125,10 C8.56110547,10 8.75,10.1888945 8.75,10.421875 L8.75,11.828125 C8.75,12.0611055 8.56110547,12.25 8.328125,12.25 Z M11,17.875 L8.75,17.875 L8.75,14.921875 C8.75,14.6888945 8.93889453,14.5 9.171875,14.5 L10.578125,14.5 C10.8111055,14.5 11,14.6888945 11,14.921875 L11,17.875 Z M13.25,11.828125 C13.25,12.0611055 13.0611055,12.25 12.828125,12.25 L11.421875,12.25 C11.1888945,12.25 11,12.0611055 11,11.828125 L11,10.421875 C11,10.1888945 11.1888945,10 11.421875,10 L12.828125,10 C13.0611055,10 13.25,10.1888945 13.25,10.421875 L13.25,11.828125 Z M13.25,8.453125 C13.25,8.68610547 13.0611055,8.875 12.828125,8.875 L11.421875,8.875 C11.1888945,8.875 11,8.68610547 11,8.453125 L11,7.046875 C11,6.81389453 11.1888945,6.625 11.421875,6.625 L12.828125,6.625 C13.0611055,6.625 13.25,6.81389453 13.25,7.046875 L13.25,8.453125 Z M13.25,5.078125 C13.25,5.31110547 13.0611055,5.5 12.828125,5.5 L11.421875,5.5 C11.1888945,5.5 11,5.31110547 11,5.078125 L11,3.671875 C11,3.43889453 11.1888945,3.25 11.421875,3.25 L12.828125,3.25 C13.0611055,3.25 13.25,3.43889453 13.25,3.671875 L13.25,5.078125 Z" id="Shape" fill="#FFFFFF" fill-rule="nonzero"></path>
    </g>
</svg>