<?xml version="1.0" encoding="UTF-8"?>
<svg width="20px" height="20px" viewBox="0 0 20 20" version="1.1" xmlns="http://www.w3.org/2000/svg" xmlns:xlink="http://www.w3.org/1999/xlink">
    <title>icon/tel</title>
    <g id="icon/tel" stroke="none" stroke-width="1" fill="none" fill-rule="evenodd">
        <g id="phone" transform="translate(2.000000, 2.000000)" fill="#FFFFFF" fill-rule="nonzero">
            <path d="M15.419883,0.798440546 L12.1762183,0.0499025341 C11.8237817,-0.0311890838 11.4619883,0.152826511 11.3185185,0.483430799 L9.8214425,3.97660819 C9.69044834,4.28226121 9.77777778,4.64093567 10.0366472,4.84990253 L11.9267057,6.39688109 C10.8038986,8.78908382 8.84210526,10.7789474 6.4,11.9235867 L4.85302144,10.0335283 C4.64093567,9.77465887 4.28538012,9.68732943 3.9797271,9.81832359 L0.486549708,11.3153996 C0.152826511,11.4619883 -0.0311890838,11.8237817 0.0499025341,12.1762183 L0.798440546,15.419883 C0.876413255,15.7567251 1.17582846,16 1.52826511,16 C9.51578947,16 16,9.52826511 16,1.52826511 C16,1.17894737 15.7598441,0.876413255 15.419883,0.798440546 Z" id="Path"></path>
        </g>
    </g>
</svg>